HIERARCHY
ROOT Hips
{
	OFFSET 0.000000 0.000000 0.000000
	CHANNELS 6 Xposition Yposition Zposition Xrotation Yrotation Zrotation
	JOINT LeftUpLeg_virtual
	{
		OFFSET 0.000000 0.000000 0.000000
		CHANNELS 3 Xrotation Yrotation Zrotation
		JOINT LeftUpLeg
		{
			OFFSET 15.427100 -6.655098 0.678600
			CHANNELS 3 Xrotation Yrotation Zrotation
			JOINT LeftLeg
			{
				OFFSET 4.081073 -39.591068 13.024000
				CHANNELS 3 Xrotation Yrotation Zrotation
				JOINT LeftFoot
				{
					OFFSET -4.081074 -37.707932 -15.979700
					CHANNELS 3 Xrotation Yrotation Zrotation
					JOINT LeftToeBase
					{
						OFFSET 5.346399 -15.068900 20.645000
						CHANNELS 3 Xrotation Yrotation Zrotation
						JOINT LeftToe_End
						{
							OFFSET 2.754700 0.931300 11.300900
							CHANNELS 3 Xrotation Yrotation Zrotation
							End Site
							{
								OFFSET 0 0 0
							}
						}
					}
				}
			}
		}
	}
	JOINT RightUpLeg_virtual
	{
		OFFSET 0.000000 0.000000 0.000000
		CHANNELS 3 Xrotation Yrotation Zrotation
		JOINT RightUpLeg
		{
			OFFSET -15.569500 -6.655098 0.678600
			CHANNELS 3 Xrotation Yrotation Zrotation
			JOINT RightLeg
			{
				OFFSET -4.081825 -39.591045 13.023800
				CHANNELS 3 Xrotation Yrotation Zrotation
				JOINT RightFoot
				{
					OFFSET 4.081824 -37.707954 -15.979600
					CHANNELS 3 Xrotation Yrotation Zrotation
					JOINT RightToeBase
					{
						OFFSET -5.346400 -15.068900 20.645000
						CHANNELS 3 Xrotation Yrotation Zrotation
						JOINT RightToe_End
						{
							OFFSET -2.754700 0.931300 11.300900
							CHANNELS 3 Xrotation Yrotation Zrotation
							End Site
							{
								OFFSET 0 0 0
							}
						}
					}
				}
			}
		}
	}
	JOINT Spine_virtual
	{
		OFFSET 0.000000 0.000000 0.000000
		CHANNELS 3 Xrotation Yrotation Zrotation
		JOINT Spine
		{
			OFFSET -0.279200 12.230698 -2.892100
			CHANNELS 3 Xrotation Yrotation Zrotation
			JOINT Spine1
			{
				OFFSET -0.232667 10.192268 -1.242267
				CHANNELS 3 Xrotation Yrotation Zrotation
				JOINT Spine1_split
				{
					OFFSET -0.232667 10.192268 -1.242267
					CHANNELS 3 Xrotation Yrotation Zrotation
					JOINT Spine2
					{
						OFFSET -0.232667 10.192268 -1.242267
						CHANNELS 3 Xrotation Yrotation Zrotation
						JOINT Neck_virtual
						{
							OFFSET 0.000000 0.000000 0.000000
							CHANNELS 3 Xrotation Yrotation Zrotation
							JOINT Neck
							{
								OFFSET -0.418800 17.814194 8.416900
								CHANNELS 3 Xrotation Yrotation Zrotation
								JOINT Head
								{
									OFFSET 0.000000 7.031097 3.806800
									CHANNELS 3 Xrotation Yrotation Zrotation
									JOINT HeadTop_End
									{
										OFFSET 0.000000 24.646606 12.978600
										CHANNELS 3 Xrotation Yrotation Zrotation
										End Site
										{
											OFFSET 0 0 0
										}
									}
								}
							}
						}
						JOINT LeftShoulder_virtual
						{
							OFFSET 0.000000 0.000000 0.000000
							CHANNELS 3 Xrotation Yrotation Zrotation
							JOINT LeftShoulder
							{
								OFFSET 8.476499 7.247704 -3.868750
								CHANNELS 3 Xrotation Yrotation Zrotation
								JOINT LeftShoulder_split
								{
									OFFSET 8.476499 7.247704 -3.868750
									CHANNELS 3 Xrotation Yrotation Zrotation
									JOINT LeftArm
									{
										OFFSET 9.308998 -2.777710 0.208600
										CHANNELS 3 Xrotation Yrotation Zrotation
										JOINT LeftForeArm
										{
											OFFSET 29.972298 0.000000 0.000000
											CHANNELS 3 Xrotation Yrotation Zrotation
											JOINT LeftHand
											{
												OFFSET 26.026505 0.000000 0.000000
												CHANNELS 3 Xrotation Yrotation Zrotation
												End Site
												{
													OFFSET 0 0 0
												}
											}
										}
									}
								}
							}
						}
						JOINT RightShoulder_virtual
						{
							OFFSET 0.000000 0.000000 0.000000
							CHANNELS 3 Xrotation Yrotation Zrotation
							JOINT RightShoulder
							{
								OFFSET -7.570500 7.247704 -3.868750
								CHANNELS 3 Xrotation Yrotation Zrotation
								JOINT RightShoulder_split
								{
									OFFSET -7.570500 7.247704 -3.868750
									CHANNELS 3 Xrotation Yrotation Zrotation
									JOINT RightArm
									{
										OFFSET -9.308998 -2.777710 0.208500
										CHANNELS 3 Xrotation Yrotation Zrotation
										JOINT RightForeArm
										{
											OFFSET -29.972300 0.000000 0.000000
											CHANNELS 3 Xrotation Yrotation Zrotation
											JOINT RightHand
											{
												OFFSET -26.026505 0.000000 0.000000
												CHANNELS 3 Xrotation Yrotation Zrotation
												End Site
												{
													OFFSET 0 0 0
												}
											}
										}
									}
								}
							}
						}
					}
				}
			}
		}
	}
}
MOTION
Frames: 6
Frame Time: 0.03333333
-0.374980 92.201057 -3.126446 0.000000 0.000000 0.000000 -5.113545 -3.796181 0.228525 -4.356162 4.861245 8.858766 18.610490 7.922341 -0.288561 -7.760825 4.458781 -7.714320 1.637722 -0.141922 -0.660553 0.000000 0.000000 0.000000 -4.907760 -3.124398 0.186652 -2.412677 -10.187863 -10.261954 19.369397 -6.996280 2.208362 -9.031563 -6.352365 6.570797 -1.646890 0.200561 0.149278 0.000000 0.000000 0.000000 -4.958541 -3.501881 -0.097054 4.554853 1.661831 -2.279933 1.244501 0.392019 0.160393 0.771615 -0.867420 0.073508 0.000000 0.000000 0.000000 0.607949 0.675061 0.074678 2.171195 -0.575584 -0.099278 18.802136 -10.564753 0.473242 0.000000 0.000000 0.000000 0.486676 0.544853 0.046747 2.575119 -4.043607 -11.766818 -1.241502 -0.666378 -1.904239 -3.176680 -8.305742 -58.425705 -1.237147 -11.276417 0.372029 0.000000 0.000000 0.000000 0.495046 0.413253 0.157655 2.730455 1.163734 15.542398 -1.299772 1.108488 -1.711209 -1.138772 9.100409 64.067099 -0.290570 14.732211 1.325533 0.000000 0.000000 0.000000 
-0.344505 92.230225 -3.391710 0.000000 0.000000 0.000000 -5.217140 -3.696621 0.251100 -4.502311 4.758747 8.845195 18.760405 7.833138 -0.272470 -7.611098 4.256927 -7.811436 1.557050 -0.144622 -0.627168 0.000000 0.000000 0.000000 -5.028056 -2.952715 0.208248 -2.283034 -10.218284 -10.201109 19.284009 -6.977646 2.091415 -9.098577 -6.433205 6.550609 -1.329447 0.193597 0.145480 0.000000 0.000000 0.000000 -5.056746 -3.231542 -0.003756 4.576918 1.761323 -2.203459 1.263169 0.422628 0.135856 0.821602 -0.627049 0.152951 0.000000 0.000000 0.000000 0.558285 0.682042 0.073819 2.195523 -0.634197 -0.099711 18.776484 -10.651216 0.571515 0.000000 0.000000 0.000000 0.492383 0.567433 0.012678 2.521312 -3.927344 -11.866515 -1.377532 -0.235290 -2.128761 -2.376544 -7.663044 -58.296669 -1.224533 -10.686414 0.425623 0.000000 0.000000 0.000000 0.530061 0.457560 0.135697 2.720935 1.318960 15.528524 -1.379459 1.505621 -1.886993 -1.884667 9.386988 64.068377 -0.217989 15.373885 1.162642 0.000000 0.000000 0.000000 
-0.376194 92.199753 -3.714092 0.000000 0.000000 0.000000 -5.407367 -3.236912 0.370126 -4.858729 4.632416 8.727229 19.129881 7.689469 -0.262084 -7.558815 3.866319 -7.777236 1.461623 -0.156270 -0.575618 0.000000 0.000000 0.000000 -5.240988 -2.391186 0.316362 -2.088690 -10.250014 -10.084725 19.485089 -6.991928 1.965180 -9.422919 -6.793507 6.442596 -1.159990 0.176050 0.120663 0.000000 0.000000 0.000000 -5.296106 -2.695662 0.132600 4.722911 1.923025 -2.089933 1.284796 0.471203 0.124116 0.869113 -0.553292 0.199991 0.000000 0.000000 0.000000 0.517297 0.711399 0.087855 2.164588 -0.730172 -0.087906 18.714341 -10.949660 0.762724 0.000000 0.000000 0.000000 0.516303 0.606575 -0.007521 2.467811 -3.868768 -11.982091 -1.568319 -0.079099 -2.146620 -1.344590 -6.536626 -58.331332 -1.089448 -9.724237 0.523101 0.000000 0.000000 0.000000 0.583681 0.523085 0.126755 2.693990 1.522264 15.579993 -1.272509 1.629929 -1.954583 -2.934569 10.219520 63.767035 -0.126272 16.414876 1.007522 0.000000 0.000000 0.000000 
-0.473014 92.136429 -4.034861 0.000000 0.000000 0.000000 -5.659804 -2.499683 0.552251 -5.345274 4.492951 8.539403 19.673023 7.506920 -0.241288 -7.628276 3.363434 -7.620042 1.384012 -0.173971 -0.526126 0.000000 0.000000 0.000000 -5.533739 -1.574264 0.493824 -1.838946 -10.274145 -9.936721 19.906901 -7.033974 1.842453 -9.967715 -7.390382 6.231515 -1.113264 0.146730 0.090979 0.000000 0.000000 0.000000 -5.629959 -1.998249 0.293852 4.961326 2.133394 -1.970044 1.298859 0.532133 0.123984 0.904262 -0.549243 0.208935 0.000000 0.000000 0.000000 0.494438 0.759874 0.113244 2.080651 -0.849854 -0.071145 18.639707 -11.423080 1.021752 0.000000 0.000000 0.000000 0.560411 0.659376 -0.006089 2.435154 -3.864455 -12.080432 -1.678936 -0.232344 -2.009996 -0.242559 -5.154150 -58.492572 -0.871714 -8.656143 0.624064 0.000000 0.000000 0.000000 0.646013 0.599330 0.133138 2.654565 1.734435 15.718080 -1.076395 1.500146 -1.901351 -4.009697 11.310213 63.245967 -0.024988 17.672850 0.882724 0.000000 0.000000 0.000000 
-0.598469 92.047241 -4.371107 0.000000 0.000000 0.000000 -5.956688 -1.614933 0.761436 -5.876326 4.352826 8.345387 20.300454 7.299421 -0.203191 -7.793541 2.831443 -7.409417 1.345972 -0.193303 -0.493091 0.000000 0.000000 0.000000 -5.884270 -0.671204 0.706381 -1.591457 -10.269060 -9.771244 20.456968 -7.092550 1.750065 -10.599391 -8.136150 5.914745 -1.066796 0.111880 0.068265 0.000000 0.000000 0.000000 -6.031664 -1.229616 0.472269 5.243176 2.382048 -1.870110 1.301606 0.602881 0.136176 0.916176 -0.530271 0.208184 0.000000 0.000000 0.000000 0.497091 0.824801 0.147874 1.980989 -0.987095 -0.055064 18.585769 -12.018594 1.322540 0.000000 0.000000 0.000000 0.617634 0.725313 0.013322 2.434184 -3.885910 -12.161713 -1.681419 -0.494734 -1.802210 0.859521 -3.665570 -58.754353 -0.632527 -7.642487 0.675289 0.000000 0.000000 0.000000 0.705197 0.677695 0.153477 2.618986 1.932043 15.926533 -0.831109 1.330438 -1.842541 -4.947102 12.360994 62.672901 0.058449 19.090425 0.817191 0.000000 0.000000 0.000000 
-0.733284 91.952164 -4.664162 0.000000 0.000000 0.000000 -6.267394 -0.726652 0.964122 -6.367999 4.232304 8.201693 20.916945 7.086828 -0.169525 -8.041074 2.351877 -7.203701 1.355605 -0.210390 -0.480378 0.000000 0.000000 0.000000 -6.255401 0.181721 0.918730 -1.389066 -10.241770 -9.611680 21.045826 -7.141056 1.729593 -11.115767 -8.922793 5.574032 -0.972438 0.082353 0.058603 0.000000 0.000000 0.000000 -6.441484 -0.463125 0.655851 5.526214 2.653120 -1.806171 1.284093 0.679902 0.157563 0.955370 -0.521387 0.147255 0.000000 0.000000 0.000000 0.518099 0.904632 0.186697 1.909550 -1.127272 -0.047179 18.572661 -12.682585 1.651484 0.000000 0.000000 0.000000 0.676278 0.803081 0.050610 2.462064 -3.910261 -12.185687 -1.642908 -0.759132 -1.639428 1.930412 -2.230029 -59.036330 -0.434432 -6.785126 0.652872 0.000000 0.000000 0.000000 0.755853 0.754854 0.185537 2.596871 2.112399 16.158131 -0.582076 1.220939 -1.788296 -5.638913 13.173931 62.197485 0.111298 20.604589 0.820194 0.000000 0.000000 0.000000 
